#!OML:ASF X:\für Bonn\!DataBase\2005_08_12_Daniel\c3d\Daniel.ASF
:FULLY-SPECIFIED
:DEGREES
473
root 14.9852 1.2688 1.02908 -724.678 -83.4113 -96.197
lowerback 15.8627 -3.21256 1.68135
upperback 0.61329 -4.12643 -0.843365
thorax -8.42383 -2.11545 -0.902995
lowerneck -11.4988 0.42662 -10.3019
upperneck 5.46534 1.70794 4.79945
head 3.36116 0.848576 3.23206
rclavicle 4.77083e-014 -7.3364e-014
rhumerus -51.441 -20.3287 -58.2563
rradius 11.4847
rwrist 76.9331
rhand -8.11535 -345.531
rfingers 7.12502
rthumb 17.7978 -374.737
lclavicle 4.77083e-014 -7.3364e-014
lhumerus -408.13 11.9074 -292.297
lradius 15.409
lwrist -58.484
lhand -5.28975 352.224
lfingers 7.12502
lthumb 20.515 381.16
rfemur 190.733 -198.693 199.965
rtibia 17.0014
rfoot -11.9969 -33.3088
rtoes 27.2185
lfemur -0.227071 -21.9417 -17.4073
ltibia 29.6908
lfoot -1.11102 29.801
ltoes 13.3031
474
root 14.9848 1.26841 1.02827 -724.657 -83.4219 -96.2161
lowerback 15.8494 -3.20879 1.66403
upperback 0.622914 -4.12415 -0.832873
thorax -8.40373 -2.11356 -0.883605
lowerneck -11.4622 0.433309 -10.3112
upperneck 5.40874 1.71485 4.79356
head 3.33747 0.852199 3.2311
rclavicle -3.85642e-014 1.81143e-014
rhumerus -51.3864 -20.2532 -58.3499
rradius 11.483
rwrist 76.7516
rhand -8.11115 -345.595
rfingers 7.12502
rthumb 17.8019 -374.8
lclavicle -3.85642e-014 1.81143e-014
lhumerus -408.132 12.0548 -292.4
lradius 15.3975
lwrist -58.6794
lhand -5.27807 352.208
lfingers 7.12502
lthumb 20.5262 381.143
rfemur 190.712 -198.642 199.947
rtibia 17.0126
rfoot -11.902 -33.3108
rtoes 27.1184
lfemur -0.254573 -21.9534 -17.4171
ltibia 29.7101
lfoot -0.988533 29.7401
ltoes 13.3224
475
root 14.9846 1.26832 1.02835 -724.528 -83.4302 -96.3393
lowerback 15.8216 -3.21056 1.65624
upperback 0.633853 -4.12725 -0.815083
thorax -8.37447 -2.11458 -0.861332
lowerneck -11.448 0.442564 -10.3096
upperneck 5.38435 1.72655 4.77772
head 3.32701 0.857486 3.22615
rclavicle -3.69739e-014 7.53394e-014
rhumerus -51.3422 -20.2089 -58.384
rradius 11.4777
rwrist 76.6826
rhand -8.12192 -345.592
rfingers 7.12502
rthumb 17.7915 -374.798
lclavicle -3.69739e-014 7.53394e-014
lhumerus -408.131 12.1214 -292.423
lradius 15.3878
lwrist -58.7531
lhand -5.27342 352.205
lfingers 7.12502
lthumb 20.5307 381.14
rfemur 190.668 -198.53 199.914
rtibia 17.0396
rfoot -11.6893 -33.281
rtoes 26.9764
lfemur -0.277347 -22.004 -17.4332
ltibia 29.7221
lfoot -0.818645 29.6991
ltoes 13.3011
476
root 14.9845 1.26838 1.0277 -724.506 -83.4478 -96.3578
lowerback 15.7961 -3.20361 1.64018
upperback 0.649943 -4.12087 -0.805835
thorax -8.34058 -2.11084 -0.845823
lowerneck -11.4553 0.446042 -10.3043
upperneck 5.36776 1.73344 4.74487
head 3.32296 0.859599 3.21535
rclavicle 4.37326e-015 4.05396e-014
rhumerus -51.295 -20.1858 -58.4269
rradius 11.4797
rwrist 76.6084
rhand -8.0919 -345.604
rfingers 7.12502
rthumb 17.8204 -374.808
lclavicle 4.37326e-015 4.05396e-014
lhumerus -408.094 12.151 -292.432
lradius 15.3668
lwrist -58.8234
lhand -5.26373 352.199
lfingers 7.12502
lthumb 20.54 381.132
rfemur 190.618 -198.31 199.837
rtibia 17.0581
rfoot -11.2327 -33.2511
rtoes 26.9578
lfemur -0.306531 -21.9861 -17.4415
ltibia 29.74
lfoot -0.607953 29.6161
ltoes 13.237
477
root 14.9844 1.26852 1.0273 -724.519 -83.4623 -96.3373
lowerback 15.7725 -3.19858 1.62274
upperback 0.658067 -4.11712 -0.797645
thorax -8.3165 -2.10828 -0.829695
lowerneck -11.4144 0.451422 -10.314
upperneck 5.31628 1.73805 4.7414
head 3.30031 0.862102 3.2151
rclavicle -2.34566e-014 5.47403e-014
rhumerus -51.1954 -19.883 -58.7468
rradius 11.5219
rwrist 76.1672
rhand -8.05283 -345.659
rfingers 7.12502
rthumb 17.858 -374.859
lclavicle -2.34566e-014 5.47403e-014
lhumerus -408.084 12.1736 -292.425
lradius 15.3642
lwrist -58.8239
lhand -5.27425 352.206
lfingers 7.12502
lthumb 20.5299 381.14
rfemur 190.563 -198.142 199.764
rtibia 17.088
rfoot -10.9512 -33.2017
rtoes 26.9725
lfemur -0.330607 -21.9773 -17.4597
ltibia 29.7528
lfoot -0.476163 29.56
ltoes 13.4141
478
root 14.9848 1.2691 1.02709 -724.356 -83.4711 -96.4923
lowerback 15.7468 -3.20385 1.61792
upperback 0.66008 -4.12425 -0.781621
thorax -8.2986 -2.11135 -0.809674
lowerneck -11.3753 0.469682 -10.2941
upperneck 5.27863 1.75774 4.70819
head 3.28153 0.87091 3.20187
rclavicle -3.29983e-014 7.03201e-015
rhumerus -51.1575 -19.8132 -58.8058
rradius 11.5229
rwrist 76.0944
rhand -8.05067 -345.68
rfingers 7.12502
rthumb 17.8601 -374.88
lclavicle -3.29983e-014 7.03201e-015
lhumerus -408.113 12.3162 -292.526
lradius 15.3542
lwrist -58.9666
lhand -5.2953 352.222
lfingers 7.12502
lthumb 20.5097 381.159
rfemur 190.495 -197.914 199.695
rtibia 17.1238
rfoot -10.5644 -33.1716
rtoes 26.9799
lfemur -0.353959 -22.0323 -17.4645
ltibia 29.7652
lfoot -0.367987 29.5242
ltoes 13.4474
